<?xml version="1.0" encoding="utf-8"?>
<!-- Uploaded to: SVG Repo, www.svgrepo.com, Generator: SVG Repo Mixer Tools -->
<svg version="1.1" id="Uploaded to svgrepo.com" xmlns="http://www.w3.org/2000/svg" xmlns:xlink="http://www.w3.org/1999/xlink" 
	 width="800px" height="800px" viewBox="0 0 32 32" xml:space="preserve">
<style type="text/css">
	.duotone_twee{fill:#555D5E;}
	.duotone_een{fill:#0B1719;}
</style>
<g>
	<path class="duotone_een" d="M25.5,17h-7c-0.276,0-0.5-0.224-0.5-0.5v-1c0-0.276,0.224-0.5,0.5-0.5h7c0.276,0,0.5,0.224,0.5,0.5v1
		C26,16.776,25.776,17,25.5,17z M26,20.5v-1c0-0.276-0.224-0.5-0.5-0.5h-7c-0.276,0-0.5,0.224-0.5,0.5v1c0,0.276,0.224,0.5,0.5,0.5
		h7C25.776,21,26,20.776,26,20.5z M14,12.5v-1c0-0.276-0.224-0.5-0.5-0.5h-7C6.224,11,6,11.224,6,11.5v1C6,12.776,6.224,13,6.5,13h7
		C13.776,13,14,12.776,14,12.5z M14,16.5v-1c0-0.276-0.224-0.5-0.5-0.5h-7C6.224,15,6,15.224,6,15.5v1C6,16.776,6.224,17,6.5,17h7
		C13.776,17,14,16.776,14,16.5z M14,20.5v-1c0-0.276-0.224-0.5-0.5-0.5h-7C6.224,19,6,19.224,6,19.5v1C6,20.776,6.224,21,6.5,21h7
		C13.776,21,14,20.776,14,20.5z M22,9V8h-5v1H22z M5.5,23C5.225,23,5,22.775,5,22.5v-13C5,9.225,5.225,9,5.5,9H15V8H4.5
		C4.224,8,4,8.199,4,8.444v15.111C4,23.801,4.224,24,4.5,24H15v-1H5.5z M27.5,8H27v14.5c0,0.275-0.225,0.5-0.5,0.5H17v1h10.5
		c0.276,0,0.5-0.199,0.5-0.444V8.444C28,8.199,27.776,8,27.5,8z M18.5,11c-0.276,0-0.5,0.224-0.5,0.5v1c0,0.276,0.224,0.5,0.5,0.5
		H22v-2H18.5z"/>
	<path class="duotone_twee" d="M26,13.5c0,0.275-0.135,0.32-0.3,0.1l-0.8-1.067c-0.22-0.293-0.58-0.293-0.8,0L23.3,13.6
		c-0.165,0.22-0.3,0.175-0.3-0.1v-5C23,8.225,23.225,8,23.5,8h2C25.775,8,26,8.225,26,8.5V13.5z M17,8h-2v16h2V8z"/>
</g>
</svg>